<svg width="18" height="17" viewBox="0 0 18 17" fill="none" xmlns="http://www.w3.org/2000/svg">
<path d="M17.2371 5.87695H13.5028L11.4081 0.754007C11.2915 0.468971 10.9807 0.338713 10.7138 0.463264C10.4469 0.587739 10.325 0.919787 10.4416 1.20486L12.3519 5.87699H5.64808L7.55847 1.20486C7.67501 0.919787 7.55316 0.587777 7.28625 0.463264C7.01938 0.338713 6.70846 0.468896 6.59195 0.754007L4.4972 5.87695H0.762943C0.274447 5.87695 -0.0880836 6.34928 0.0187913 6.84647L1.98525 15.9946C2.06334 16.3578 2.3725 16.616 2.72941 16.616H15.2706C15.6275 16.616 15.9367 16.3578 16.0148 15.9946L17.9812 6.84647C18.0881 6.34932 17.7255 5.87695 17.2371 5.87695ZM4.59641 7.60436C4.52596 7.60436 4.45435 7.5892 4.38562 7.55713C4.11871 7.43265 3.99682 7.10064 4.1134 6.81553L4.50954 5.84669H5.66042L5.07992 7.26635C4.9934 7.47809 4.79969 7.60436 4.59641 7.60436ZM6.36329 13.6121C6.36329 13.9231 6.12718 14.1753 5.83595 14.1753C5.54472 14.1753 5.30861 13.9231 5.30861 13.6121V9.48167C5.30861 9.17062 5.54472 8.91844 5.83595 8.91844C6.12718 8.91844 6.36329 9.17062 6.36329 9.48167V13.6121ZM9.52736 13.6121C9.52736 13.9231 9.29125 14.1753 9.00001 14.1753C8.70878 14.1753 8.47267 13.9231 8.47267 13.6121V9.48167C8.47267 9.17062 8.70878 8.91844 9.00001 8.91844C9.29125 8.91844 9.52736 9.17062 9.52736 9.48167V13.6121ZM12.6914 13.6121C12.6914 13.9231 12.4553 14.1753 12.1641 14.1753C11.8728 14.1753 11.6367 13.9231 11.6367 13.6121V9.48167C11.6367 9.17062 11.8728 8.91844 12.1641 8.91844C12.4553 8.91844 12.6914 9.17062 12.6914 9.48167V13.6121ZM13.6144 7.55713C13.5457 7.5892 13.4741 7.60436 13.4036 7.60436C13.2003 7.60436 13.0066 7.47813 12.9201 7.26639L12.3396 5.84673H13.4904L13.8866 6.81557C14.0032 7.10064 13.8813 7.43265 13.6144 7.55713Z" fill="white"/>
</svg>
